<svg version="1.1" id="Layer_1" xmlns="http://www.w3.org/2000/svg" xmlns:xlink="http://www.w3.org/1999/xlink" x="0px" y="0px"
	 width="100%" viewBox="0 0 1024 1024" enable-background="new 0 0 1024 1024" xml:space="preserve">
<path fill="#ffffff" opacity="1.000000" stroke="none" 
	d="
M595.000000,1025.000000 
	C396.666656,1025.000000 198.833328,1025.000000 1.000000,1025.000000 
	C1.000000,683.666687 1.000000,342.333344 1.000000,1.000000 
	C342.333344,1.000000 683.666687,1.000000 1025.000000,1.000000 
	C1025.000000,342.333344 1025.000000,683.666687 1025.000000,1025.000000 
	C881.833313,1025.000000 738.666687,1025.000000 595.000000,1025.000000 
M93.816048,96.535553 
	C94.117455,96.784630 94.418869,97.033699 95.040459,97.869415 
	C111.340553,114.221581 123.959427,133.015045 133.032288,154.273376 
	C145.274078,182.956711 149.676285,213.190720 149.858856,243.977219 
	C150.284760,315.795441 150.105408,387.618134 149.961792,459.438599 
	C149.860596,510.045044 189.088745,551.102966 239.689362,551.488037 
	C305.165558,551.986328 370.649567,551.455139 436.130219,551.369568 
	C442.566895,551.361145 449.003540,551.368408 455.663544,551.368408 
	C455.663544,628.749512 455.663544,705.138550 455.663544,781.772827 
	C454.059509,781.853943 452.763367,781.976929 451.467224,781.976868 
	C398.976471,781.975342 346.485687,781.955811 293.994934,781.966370 
	C290.499573,781.967041 286.986298,781.996338 283.511719,782.329407 
	C243.898575,786.125854 208.223953,800.324158 176.304352,823.828674 
	C139.064362,851.250977 112.659569,887.388855 93.234604,928.961060 
	C93.028763,929.401611 93.208946,930.022400 93.208946,930.830933 
	C111.891197,917.426208 131.564987,906.653076 152.253693,897.706726 
	C182.464127,884.642822 213.796326,875.735291 246.856720,875.154358 
	C284.336670,874.495667 321.835785,874.991577 359.325897,874.826965 
	C397.804260,874.658020 436.313141,875.146362 474.748749,873.725891 
	C500.796387,872.763306 522.735107,860.675598 540.299988,841.465881 
	C557.361938,822.806274 565.088318,800.328186 565.114075,775.212585 
	C565.188293,702.725586 565.133728,630.238464 565.129639,557.751404 
	C565.129517,555.839050 565.129578,553.926697 565.129578,551.856812 
	C640.143494,551.856812 714.356384,551.856812 788.960022,551.856812 
	C788.960022,553.510620 788.959961,554.647888 788.959961,555.785156 
	C788.961853,613.274963 788.859802,670.765198 789.066223,728.254272 
	C789.101318,738.039490 789.705811,747.946594 791.327576,757.581970 
	C801.743713,819.466370 833.435974,867.832825 885.015991,903.321167 
	C899.328369,913.168335 914.622498,921.145081 931.109009,927.468750 
	C931.343567,927.404358 931.578064,927.340027 931.812622,927.275635 
	C931.542542,927.182922 931.272522,927.090210 931.023804,926.302917 
	C906.572510,901.068237 891.959778,870.664673 885.150879,836.549316 
	C881.975830,820.640625 880.610229,804.370850 878.611816,787.350830 
	C878.483643,785.526123 878.355408,783.701355 878.324402,780.958435 
	C878.303833,699.311096 878.273743,617.663818 878.266113,536.016479 
	C878.261475,486.273529 838.732544,446.360748 788.885681,446.232300 
	C717.903076,446.049377 646.919678,446.145355 575.936646,446.122437 
	C572.488037,446.121307 569.039368,446.122253 565.326172,446.122253 
	C565.239685,444.287079 565.125549,442.991791 565.125305,441.696533 
	C565.112061,371.713226 565.104492,301.729919 565.130554,231.746628 
	C565.131104,230.293945 565.531982,228.841446 566.627075,227.549438 
	C578.396729,227.466324 590.166321,227.383209 602.822632,227.599945 
	C606.567932,227.507950 610.313293,227.415955 614.953796,227.581619 
	C626.870178,227.626175 638.786865,227.745926 650.702820,227.692963 
	C661.446533,227.645203 672.189331,227.408325 683.806763,227.565781 
	C686.890991,227.480240 689.975220,227.394699 693.952576,227.575592 
	C703.617371,227.528152 713.282104,227.480713 723.763245,227.690979 
	C743.509033,227.144318 763.001526,224.613052 781.782471,218.431320 
	C843.565308,198.095520 889.185913,158.297714 920.777710,101.896805 
	C922.389221,99.019859 923.140137,95.660904 924.291748,92.526367 
	C923.926880,92.229218 923.562073,91.932068 923.197205,91.634918 
	C921.450745,92.648643 919.629822,93.553764 917.968628,94.691940 
	C876.209900,123.302048 829.834839,137.652756 779.411865,137.958267 
	C702.921387,138.421722 626.426086,138.067337 549.932800,138.094757 
	C498.056793,138.113342 456.123627,179.892685 456.039795,231.798203 
	C455.927765,301.125366 455.970276,370.452820 455.946503,439.780121 
	C455.945831,441.729187 455.946381,443.678223 455.946381,445.774048 
	C382.656860,445.774048 309.943878,445.774048 236.777725,445.774048 
	C236.777725,433.466583 236.826279,421.496094 236.769058,409.526093 
	C236.558792,365.542633 237.129105,321.535004 235.819778,277.583710 
	C234.797012,243.251816 223.296402,211.626114 204.381989,182.978943 
	C177.548035,142.337051 140.711487,114.042519 95.052071,96.088791 
	C94.696602,96.064201 94.341141,96.039612 93.854248,95.542366 
	C93.491531,95.589676 93.128822,95.636986 92.766106,95.684296 
	C93.188873,95.780472 93.611649,95.876648 93.816048,96.535553 
M681.460999,588.004211 
	C671.815125,588.888794 666.738159,593.769592 666.091919,603.079468 
	C665.908997,605.713806 665.934204,608.483276 666.537903,611.031067 
	C669.487122,623.478271 672.645325,635.876343 675.784424,648.277893 
	C676.192322,649.889404 676.917908,651.420471 678.007751,654.375183 
	C684.984863,637.903564 693.556458,623.865112 696.202942,607.472351 
	C697.999329,596.344849 693.384277,589.918091 681.460999,588.004211 
M625.513977,666.226807 
	C638.210144,665.422607 650.906311,664.618408 664.713257,663.743835 
	C663.234863,661.986450 662.841003,661.225159 662.216248,660.819031 
	C650.390076,653.129761 638.597961,645.384277 626.635376,637.912048 
	C624.322510,636.467346 621.371582,635.875122 618.627869,635.321228 
	C610.705872,633.722168 604.012878,637.720093 601.422363,645.360840 
	C598.806396,653.076843 601.815613,661.156616 609.443848,663.970154 
	C614.112427,665.692078 619.472473,665.539307 625.513977,666.226807 
M337.302338,627.146057 
	C339.881012,636.053589 342.459656,644.961121 345.038330,653.868591 
	C345.551849,653.796753 346.065338,653.724854 346.578857,653.653015 
	C349.254181,648.130432 352.391022,642.777832 354.501404,637.047180 
	C358.054504,627.398987 361.868011,617.693420 363.873627,607.672058 
	C365.858795,597.752380 358.948425,590.197449 349.703339,589.967041 
	C340.193085,589.730042 333.564545,596.480164 334.182495,606.643677 
	C334.583740,613.243225 336.087646,619.775696 337.302338,627.146057 
M642.828247,339.213348 
	C649.843567,338.594727 656.858887,337.976105 663.874207,337.357483 
	C663.948792,336.918640 664.023438,336.479797 664.098022,336.040955 
	C650.716919,326.916748 637.987732,316.778656 622.964417,310.210358 
	C621.762268,309.684784 620.416138,309.434937 619.110657,309.207947 
	C609.810913,307.591095 602.289917,312.570007 601.003296,321.155792 
	C599.580139,330.653015 604.896362,338.272888 614.535034,339.019684 
	C623.609985,339.722778 632.776428,339.243805 642.828247,339.213348 
M669.679749,298.874023 
	C672.237427,308.407501 674.795166,317.940979 677.352844,327.474457 
	C677.943359,327.470062 678.533813,327.465637 679.124268,327.461212 
	C685.959412,312.429718 694.855103,298.160736 696.855286,281.272919 
	C698.004822,271.566833 691.245361,264.222290 681.821289,263.861572 
	C672.441162,263.502594 666.320129,269.900787 666.855774,280.317230 
	C667.161743,286.265839 668.540100,292.159302 669.679749,298.874023 
M703.902527,324.398560 
	C712.745789,319.469177 721.726440,314.766632 730.380493,309.524811 
	C735.527283,306.407379 738.213135,301.508057 737.371399,295.177582 
	C736.481018,288.481079 732.479431,284.310730 726.270325,282.445435 
	C719.405945,280.383240 713.265808,282.660706 709.679504,288.492798 
	C701.866699,301.198242 694.769836,314.345306 687.472412,327.363495 
	C686.930420,328.330231 687.124023,329.709320 686.869995,331.742279 
	C692.901489,329.164307 698.067322,326.956360 703.902527,324.398560 
M680.208801,679.412415 
	C679.338257,690.111206 678.107361,700.797302 677.732605,711.513489 
	C677.508423,717.923523 677.872986,724.555115 679.318604,730.774353 
	C681.363464,739.571533 688.287659,743.292053 696.730469,741.394348 
	C707.339111,739.009827 712.600891,728.386414 706.597107,717.944702 
	C698.937988,704.624023 689.563110,692.289917 680.208801,679.412415 
M705.106018,669.340027 
	C710.906738,670.803894 716.640381,672.696289 722.526001,673.617981 
	C729.191772,674.661743 736.043335,675.596863 742.721924,675.162231 
	C748.786255,674.767639 752.858948,670.498718 754.184204,664.277344 
	C755.526794,657.974548 753.561584,652.828735 748.461304,648.894409 
	C743.963806,645.425049 738.613831,644.929932 733.717651,646.671936 
	C719.499817,651.730774 705.501831,657.408386 691.434875,662.887634 
	C690.910645,663.091797 690.566895,663.759338 689.618103,664.760803 
	C694.879395,666.319031 699.601501,667.717529 705.106018,669.340027 
M686.454895,654.485229 
	C687.548767,654.964478 688.865784,656.088867 689.694580,655.802124 
	C692.180725,654.942017 694.539917,653.641174 696.835388,652.316101 
	C708.316406,645.688293 720.123535,639.534546 731.086365,632.133301 
	C737.950073,627.499329 737.925598,617.455322 732.481445,611.404053 
	C726.538696,604.798462 718.397400,604.155273 711.713379,610.041077 
	C709.246399,612.213379 706.700256,614.647766 705.190308,617.493286 
	C698.822876,629.492432 692.832764,641.691895 686.454895,654.485229 
M373.777832,717.880249 
	C365.460541,705.028931 357.143280,692.177612 348.825989,679.326294 
	C348.235138,679.567566 347.644318,679.808838 347.053497,680.050110 
	C346.508423,685.236206 345.556458,690.417969 345.501801,695.609131 
	C345.383209,706.875183 345.220459,718.184326 346.075439,729.399597 
	C346.543121,735.534302 349.901459,740.757812 356.954437,742.000916 
	C363.327301,743.124084 368.851654,741.755188 372.981567,736.460693 
	C377.416046,730.775879 376.651337,724.727295 373.777832,717.880249 
M711.679626,329.174438 
	C704.655823,332.239014 697.631958,335.303589 690.608093,338.368164 
	C690.676941,338.981873 690.745728,339.595551 690.814575,340.209259 
	C699.873535,342.807648 708.840210,345.818024 718.020264,347.876251 
	C725.586548,349.572632 733.392395,350.877045 741.116333,351.017090 
	C750.109192,351.180206 756.231750,342.959808 754.927490,334.055389 
	C753.776611,326.197784 747.354309,320.599609 738.842285,321.956238 
	C729.888977,323.383148 721.208679,326.523468 711.679626,329.174438 
M272.206116,660.073120 
	C275.997589,662.278931 279.618835,665.972534 283.610413,666.429321 
	C299.683716,668.268494 315.663544,665.991089 333.023407,663.807556 
	C330.160400,661.463928 328.434082,659.748718 326.431854,658.463379 
	C317.054657,652.443054 307.649933,646.461731 298.142944,640.649902 
	C295.626160,639.111267 292.797272,637.929810 289.960999,637.098572 
	C283.777771,635.286560 277.932770,636.047546 273.604706,641.259888 
	C269.017151,646.784729 268.412231,652.959778 272.206116,660.073120 
M643.077515,346.605865 
	C633.649963,348.531067 624.001038,349.745758 614.860962,352.593506 
	C606.723877,355.128815 603.624268,363.509583 606.420715,371.346130 
	C608.989624,378.544891 617.039307,382.815002 624.736145,379.987335 
	C629.765869,378.139465 634.669922,375.179504 638.755188,371.692505 
	C647.101013,364.568970 654.870605,356.768768 662.836365,349.203918 
	C663.792542,348.295807 664.493469,347.118927 666.288330,344.813446 
	C657.784241,345.415894 650.873779,345.905457 643.077515,346.605865 
M668.556946,715.041260 
	C669.764282,702.787170 670.971619,690.533081 672.178955,678.279053 
	C671.515137,678.083435 670.851318,677.887878 670.187500,677.692322 
	C658.997986,688.715637 648.198792,700.141724 639.015869,712.939514 
	C633.383789,720.788757 635.932556,730.618103 644.028259,735.298340 
	C651.697388,739.731995 661.261963,736.623901 665.262329,727.872986 
	C666.950989,724.178894 667.374146,719.906372 668.556946,715.041260 
M716.305725,711.250488 
	C717.218689,711.975037 718.095459,712.751709 719.050659,713.415466 
	C723.984558,716.843750 729.214600,717.472107 734.586426,714.634338 
	C739.996826,711.776245 742.301086,706.980164 742.232849,701.024719 
	C742.133118,692.317139 736.381104,687.572327 729.224426,685.101318 
	C716.516907,680.713806 703.498108,677.224365 690.585999,673.439331 
	C689.662048,673.168457 688.546570,673.550842 687.520081,673.629456 
	C687.181580,674.077454 686.843018,674.525391 686.504456,674.973389 
	C696.262878,686.902527 706.021301,698.831665 716.305725,711.250488 
M671.797913,355.138397 
	C671.660278,354.222656 671.522644,353.306915 671.233521,351.383362 
	C666.132568,356.375488 661.391113,360.498413 657.268677,365.167847 
	C650.582153,372.741608 643.783142,380.312805 638.028320,388.578979 
	C634.063721,394.273621 635.537537,401.118835 639.805603,405.598053 
	C644.612183,410.642456 651.291748,412.308655 657.096924,409.561859 
	C662.761963,406.881470 666.249084,402.087982 667.089355,396.048065 
	C668.942200,382.730988 670.268372,369.340607 671.797913,355.138397 
M357.973663,646.476196 
	C356.622375,649.880676 355.271057,653.285217 353.775909,657.052124 
	C355.332092,657.052124 355.927063,657.236206 356.297882,657.025574 
	C370.154175,649.156067 384.563629,642.083435 397.641510,633.077942 
	C407.607178,626.215393 404.298828,612.623291 392.688538,608.209534 
	C385.415985,605.444885 378.157776,608.241211 373.137329,616.946716 
	C367.741119,626.303650 363.196014,636.151428 357.973663,646.476196 
M365.694000,690.809875 
	C371.240601,697.862305 376.281952,705.399902 382.465424,711.840881 
	C389.725006,719.402832 400.429047,718.625061 406.071930,711.124634 
	C412.032257,703.202209 409.594360,692.609680 399.331085,687.904724 
	C388.814240,683.083557 377.549164,679.870728 366.545593,676.148987 
	C363.010590,674.953308 359.265900,674.377502 355.617157,673.518066 
	C355.345520,673.891968 355.073914,674.265808 354.802277,674.639648 
	C358.288177,679.838074 361.774078,685.036499 365.694000,690.809875 
M648.905701,672.435303 
	C644.458374,672.989380 639.960205,673.286865 635.575012,674.154785 
	C628.115417,675.631165 620.396851,676.624817 613.394714,679.370789 
	C605.220825,682.576294 602.798645,690.764343 606.319519,698.444092 
	C609.872498,706.193787 617.237488,709.105957 625.428101,705.848999 
	C627.570618,704.997009 629.834106,704.033081 631.528625,702.538513 
	C642.227112,693.102173 652.786560,683.508118 663.362610,673.933777 
	C663.784851,673.551514 663.911011,672.842224 664.650513,671.282776 
	C659.215088,671.649841 654.501709,671.968140 648.905701,672.435303 
M652.365112,607.182312 
	C645.461304,599.944336 638.599182,598.973267 631.717957,604.260559 
	C625.383606,609.127625 624.318054,617.646057 629.465698,625.287598 
	C631.486328,628.287048 633.927368,631.226990 636.782043,633.398682 
	C645.244812,639.836914 653.987610,645.909119 662.672058,652.052124 
	C664.515808,653.356323 666.576416,654.354004 668.537048,655.492981 
	C665.215088,638.642822 661.521912,622.345276 652.365112,607.182312 
M349.937988,409.523315 
	C355.719391,415.251007 361.500641,416.112274 368.417816,412.276337 
	C374.499329,408.903839 377.000214,403.263000 375.081635,395.693176 
	C374.075684,391.724152 372.633698,387.664032 370.462677,384.230560 
	C364.509857,374.816284 358.083679,365.700500 351.797791,356.498718 
	C350.960571,355.273193 349.850800,354.233826 347.870941,351.968048 
	C346.877838,364.178680 345.704102,374.758240 345.256439,385.368439 
	C344.915771,393.442413 344.247986,401.783142 349.937988,409.523315 
M299.970245,675.546936 
	C294.025146,677.014832 287.798309,677.801208 282.202576,680.114258 
	C274.281494,683.388550 271.777252,691.512085 275.287842,699.307068 
	C278.583618,706.625061 286.420288,710.011902 294.018188,707.008911 
	C297.057434,705.807678 300.121033,704.127747 302.522736,701.948486 
	C312.366211,693.016846 321.966614,683.816956 331.622620,674.679932 
	C332.142395,674.188110 332.353546,673.370117 333.387421,671.428894 
	C321.776520,672.811523 311.291473,674.060120 299.970245,675.546936 
M420.642609,657.282776 
	C418.799927,650.978882 414.587067,647.238403 408.070953,646.964111 
	C404.320740,646.806213 400.250275,647.122620 396.791656,648.446960 
	C384.060822,653.321777 371.521759,658.698059 358.930328,663.933289 
	C358.444641,664.135193 358.162537,664.826843 357.506256,665.633728 
	C362.191406,667.085022 366.390015,668.742188 370.744293,669.664856 
	C381.946198,672.038452 393.135590,674.976013 404.483246,676.015930 
	C415.950653,677.066895 421.816711,669.759949 420.642609,657.282776 
M313.641571,704.140442 
	C311.022125,707.782532 308.071350,711.234924 305.854004,715.107300 
	C301.592560,722.549377 304.594299,732.489258 311.874481,736.253784 
	C319.636597,740.267517 328.947021,736.860535 332.711182,728.541260 
	C333.457245,726.892395 334.082367,725.107361 334.324615,723.325500 
	C335.644714,713.616516 336.886139,703.895752 338.033234,694.164795 
	C338.619934,689.187622 338.953064,684.180542 339.400787,679.187012 
	C338.787659,678.887085 338.174530,678.587219 337.561401,678.287292 
	C329.734863,686.718811 321.908325,695.150330 313.641571,704.140442 
M339.036316,271.712830 
	C338.162689,276.032745 336.476929,280.378815 336.614838,284.666199 
	C336.799652,290.412659 338.152405,296.169220 339.442230,301.821411 
	C341.441681,310.583527 343.811401,319.261108 346.024139,327.974548 
	C349.554352,323.611633 352.141754,319.370605 353.999176,314.830902 
	C358.137390,304.716644 362.445862,294.617645 365.650757,284.194427 
	C367.908112,276.853058 363.834747,269.374817 357.728058,266.531067 
	C351.164856,263.474731 344.918030,265.031281 339.036316,271.712830 
M725.417786,359.070374 
	C713.294006,355.003601 701.170288,350.936829 689.046509,346.870056 
	C688.722412,347.439697 688.398315,348.009308 688.074219,348.578949 
	C693.911133,357.392700 699.444397,366.429626 705.698059,374.937073 
	C709.490234,380.096008 713.841248,385.187103 718.940491,388.957153 
	C725.620117,393.895599 735.029602,391.356018 739.613525,384.590210 
	C744.014465,378.094482 742.488464,369.956360 735.576782,364.835358 
	C732.668518,362.680573 729.289429,361.161316 725.417786,359.070374 
M655.902222,286.690857 
	C655.225647,285.544098 654.614990,284.351898 653.861877,283.257874 
	C648.836548,275.958466 640.951172,273.955902 633.874634,278.148315 
	C626.805664,282.336243 624.468384,291.122986 628.916443,298.611572 
	C631.008972,302.134552 633.613464,305.650391 636.778748,308.175903 
	C642.877258,313.041840 649.493958,317.268951 655.983765,321.630096 
	C660.312805,324.539154 664.794128,327.221802 669.207275,330.005737 
	C669.766846,329.654266 670.326416,329.302795 670.885925,328.951324 
	C665.995728,315.089264 661.105469,301.227173 655.902222,286.690857 
M684.745178,357.735779 
	C683.502014,356.143311 682.258850,354.550842 681.015686,352.958374 
	C679.140991,363.173706 678.255981,372.901031 677.819885,382.648468 
	C677.553345,388.606415 677.674194,394.619934 678.160095,400.564453 
	C678.925354,409.927612 686.281006,416.122223 694.481995,414.780670 
	C704.250183,413.182709 709.594299,405.598297 706.968506,395.993896 
	C705.590332,390.953186 703.359253,385.981628 700.643372,381.506775 
	C695.825256,373.568176 690.344299,366.031799 684.745178,357.735779 
M279.947357,337.850952 
	C290.859589,341.337189 302.032257,340.136230 313.135834,339.523895 
	C319.676361,339.163177 326.185577,338.234283 332.708862,337.560913 
	C319.699310,327.264221 307.190857,317.008362 292.147003,310.809692 
	C284.074097,307.483337 276.451477,310.320343 272.979492,317.317993 
	C269.278076,324.778046 271.740051,332.707703 279.947357,337.850952 
M305.096436,399.260071 
	C306.804047,405.273071 310.645416,409.022064 316.858704,410.082214 
	C325.381073,411.536438 332.819427,406.504456 334.665833,396.536987 
	C337.085846,383.472961 338.383636,370.199432 340.079529,357.005127 
	C340.270447,355.519806 339.913666,353.964081 339.810883,352.440979 
	C339.354919,352.262054 338.898987,352.083099 338.443024,351.904144 
	C328.721222,362.348419 318.811890,372.627197 309.372467,383.320770 
	C305.738556,387.437500 303.201294,392.505798 305.096436,399.260071 
M389.438873,348.969849 
	C394.691803,349.693756 399.932800,350.907837 405.200226,351.036041 
	C415.122070,351.277557 421.695801,344.541870 421.196594,335.366516 
	C420.716003,326.532928 413.434753,320.584137 403.612732,322.227844 
	C387.399170,324.941162 372.720581,332.073303 358.064423,339.081604 
	C358.022064,339.619507 357.979706,340.157410 357.937347,340.695282 
	C368.159393,343.416748 378.381439,346.138184 389.438873,348.969849 
M330.884186,301.560791 
	C328.340302,295.437561 326.358856,288.995209 323.110931,283.271484 
	C318.998810,276.024750 309.956085,274.197357 303.099823,278.317352 
	C296.418030,282.332520 294.249573,290.608795 298.273590,297.952301 
	C299.771423,300.685669 301.601318,303.541351 303.999786,305.423950 
	C314.042603,313.306824 324.347290,320.856934 334.593048,328.479156 
	C335.555908,329.195435 336.778229,329.562897 339.380615,330.813324 
	C336.340790,320.384094 333.709808,311.357422 330.884186,301.560791 
M304.529388,602.830627 
	C293.892914,607.008728 290.636108,618.122009 297.624054,627.100525 
	C299.954071,630.094238 302.596222,633.046875 305.656952,635.232178 
	C314.859253,641.802612 324.329407,647.998535 333.723938,654.297607 
	C334.572021,654.866272 335.628052,655.124817 337.393280,655.865540 
	C333.329437,639.545288 329.136810,624.192749 321.259033,610.170776 
	C317.846008,604.095764 312.359192,601.457703 304.529388,602.830627 
M386.656525,317.110596 
	C390.804688,314.344147 395.238556,311.918762 399.037872,308.735931 
	C405.691345,303.162048 405.881256,293.859436 399.908691,287.974304 
	C393.388611,281.549744 382.831055,281.433746 377.639648,289.466400 
	C369.375244,302.254028 362.667145,316.048126 355.339722,329.437836 
	C355.072296,329.926575 355.215393,330.639984 355.033691,332.932251 
	C366.006439,327.463074 376.016510,322.473755 386.656525,317.110596 
M316.588776,363.078949 
	C322.270538,357.675873 327.952301,352.272766 333.634033,346.869690 
	C333.403259,346.413818 333.172485,345.957977 332.941681,345.502136 
	C330.998657,345.502136 329.029572,345.295380 327.116943,345.536530 
	C316.567932,346.866608 305.994415,348.075378 295.510620,349.815674 
	C290.993195,350.565521 286.396027,351.950317 282.325256,354.013672 
	C276.242249,357.096985 273.927948,363.293579 275.511353,369.643250 
	C277.206573,376.441315 282.071747,381.008331 289.041992,380.577881 
	C293.268738,380.316833 297.875702,378.646545 301.394562,376.257996 
	C306.711975,372.648560 311.228882,367.859863 316.588776,363.078949 
M369.127747,368.389404 
	C371.246613,371.379425 373.164581,374.540771 375.533325,377.317657 
	C378.754639,381.094025 381.881042,385.180817 385.833221,388.054871 
	C393.230713,393.434326 402.790405,390.792480 407.207214,382.846069 
	C411.226562,375.614746 409.041840,366.544617 400.892731,362.963074 
	C389.361633,357.895142 377.241302,354.157166 365.329803,349.973206 
	C362.418457,348.950592 359.339752,348.404388 356.338013,347.639130 
	C356.032471,348.009308 355.726898,348.379486 355.421356,348.749695 
	C359.856110,355.099335 364.290894,361.449005 369.127747,368.389404 
z"/>
<path fill="#0075f2" opacity="1.000000" stroke="none" 
	d="
M930.999756,927.000488 
	C914.622498,921.145081 899.328369,913.168335 885.015991,903.321167 
	C833.435974,867.832825 801.743713,819.466370 791.327576,757.581970 
	C789.705811,747.946594 789.101318,738.039490 789.066223,728.254272 
	C788.859802,670.765198 788.961853,613.274963 788.959961,555.785156 
	C788.959961,554.647888 788.960022,553.510620 788.960022,551.856812 
	C714.356384,551.856812 640.143494,551.856812 565.129578,551.856812 
	C565.129578,553.926697 565.129517,555.839050 565.129639,557.751404 
	C565.133728,630.238464 565.188293,702.725586 565.114075,775.212585 
	C565.088318,800.328186 557.361938,822.806274 540.299988,841.465881 
	C522.735107,860.675598 500.796387,872.763306 474.748749,873.725891 
	C436.313141,875.146362 397.804260,874.658020 359.325897,874.826965 
	C321.835785,874.991577 284.336670,874.495667 246.856720,875.154358 
	C213.796326,875.735291 182.464127,884.642822 152.253693,897.706726 
	C131.564987,906.653076 111.891197,917.426208 93.208946,930.830933 
	C93.208946,930.022400 93.028763,929.401611 93.234604,928.961060 
	C112.659569,887.388855 139.064362,851.250977 176.304352,823.828674 
	C208.223953,800.324158 243.898575,786.125854 283.511719,782.329407 
	C286.986298,781.996338 290.499573,781.967041 293.994934,781.966370 
	C346.485687,781.955811 398.976471,781.975342 451.467224,781.976868 
	C452.763367,781.976929 454.059509,781.853943 455.663544,781.772827 
	C455.663544,705.138550 455.663544,628.749512 455.663544,551.368408 
	C449.003540,551.368408 442.566895,551.361145 436.130219,551.369568 
	C370.649567,551.455139 305.165558,551.986328 239.689362,551.488037 
	C189.088745,551.102966 149.860596,510.045044 149.961792,459.438599 
	C150.105408,387.618134 150.284760,315.795441 149.858856,243.977219 
	C149.676285,213.190720 145.274078,182.956711 133.032288,154.273376 
	C123.959427,133.015045 111.340553,114.221581 95.082626,97.364288 
	C95.247742,96.707893 95.370697,96.556633 95.493645,96.405365 
	C140.711487,114.042519 177.548035,142.337051 204.381989,182.978943 
	C223.296402,211.626114 234.797012,243.251816 235.819778,277.583710 
	C237.129105,321.535004 236.558792,365.542633 236.769058,409.526093 
	C236.826279,421.496094 236.777725,433.466583 236.777725,445.774048 
	C309.943878,445.774048 382.656860,445.774048 455.946381,445.774048 
	C455.946381,443.678223 455.945831,441.729187 455.946503,439.780121 
	C455.970276,370.452820 455.927765,301.125366 456.039795,231.798203 
	C456.123627,179.892685 498.056793,138.113342 549.932800,138.094757 
	C626.426086,138.067337 702.921387,138.421722 779.411865,137.958267 
	C829.834839,137.652756 876.209900,123.302048 917.968628,94.691940 
	C919.629822,93.553764 921.450745,92.648643 923.197205,91.634918 
	C923.562073,91.932068 923.926880,92.229218 924.291748,92.526367 
	C923.140137,95.660904 922.389221,99.019859 920.777710,101.896805 
	C889.185913,158.297714 843.565308,198.095520 781.782471,218.431320 
	C763.001526,224.613052 743.509033,227.144318 723.206299,227.223694 
	C713.094299,226.563797 703.539490,226.360596 693.983704,226.226822 
	C693.680725,226.222580 693.367798,226.932297 693.059448,227.309174 
	C689.975220,227.394699 686.890991,227.480240 683.198792,227.093994 
	C681.984131,226.416702 681.377747,226.032425 680.770752,226.031494 
	C659.497131,225.998825 638.223328,225.984863 616.949890,226.056595 
	C615.984741,226.059845 615.022278,226.882812 614.058594,227.323975 
	C610.313293,227.415955 606.567932,227.507950 602.214844,227.127594 
	C590.151794,226.493439 578.696594,226.316147 567.240784,226.222305 
	C566.745789,226.218262 566.244507,226.982513 565.746155,227.388855 
	C565.531982,228.841446 565.131104,230.293945 565.130554,231.746628 
	C565.104492,301.729919 565.112061,371.713226 565.125305,441.696533 
	C565.125549,442.991791 565.239685,444.287079 565.326172,446.122253 
	C569.039368,446.122253 572.488037,446.121307 575.936646,446.122437 
	C646.919678,446.145355 717.903076,446.049377 788.885681,446.232300 
	C838.732544,446.360748 878.261475,486.273529 878.266113,536.016479 
	C878.273743,617.663818 878.303833,699.311096 877.956360,781.662292 
	C877.867004,784.332336 878.145752,786.298523 878.424500,788.264709 
	C880.610229,804.370850 881.975830,820.640625 885.150879,836.549316 
	C891.959778,870.664673 906.572510,901.068237 931.011902,926.651489 
	C931.000000,927.000000 930.999756,927.000488 930.999756,927.000488 
z"/>
<path fill="#0075f2" opacity="1.000000" stroke="none" 
	d="
M681.880920,588.032715 
	C693.384277,589.918091 697.999329,596.344849 696.202942,607.472351 
	C693.556458,623.865112 684.984863,637.903564 678.007751,654.375183 
	C676.917908,651.420471 676.192322,649.889404 675.784424,648.277893 
	C672.645325,635.876343 669.487122,623.478271 666.537903,611.031067 
	C665.934204,608.483276 665.908997,605.713806 666.091919,603.079468 
	C666.738159,593.769592 671.815125,588.888794 681.880920,588.032715 
z"/>
<path fill="#0075f2" opacity="1.000000" stroke="none" 
	d="
M625.017944,666.227661 
	C619.472473,665.539307 614.112427,665.692078 609.443848,663.970154 
	C601.815613,661.156616 598.806396,653.076843 601.422363,645.360840 
	C604.012878,637.720093 610.705872,633.722168 618.627869,635.321228 
	C621.371582,635.875122 624.322510,636.467346 626.635376,637.912048 
	C638.597961,645.384277 650.390076,653.129761 662.216248,660.819031 
	C662.841003,661.225159 663.234863,661.986450 664.713257,663.743835 
	C650.906311,664.618408 638.210144,665.422607 625.017944,666.227661 
z"/>
<path fill="#0075f2" opacity="1.000000" stroke="none" 
	d="
M337.199951,626.742188 
	C336.087646,619.775696 334.583740,613.243225 334.182495,606.643677 
	C333.564545,596.480164 340.193085,589.730042 349.703339,589.967041 
	C358.948425,590.197449 365.858795,597.752380 363.873627,607.672058 
	C361.868011,617.693420 358.054504,627.398987 354.501404,637.047180 
	C352.391022,642.777832 349.254181,648.130432 346.578857,653.653015 
	C346.065338,653.724854 345.551849,653.796753 345.038330,653.868591 
	C342.459656,644.961121 339.881012,636.053589 337.199951,626.742188 
z"/>
<path fill="#0075f2" opacity="1.000000" stroke="none" 
	d="
M642.365479,339.249115 
	C632.776428,339.243805 623.609985,339.722778 614.535034,339.019684 
	C604.896362,338.272888 599.580139,330.653015 601.003296,321.155792 
	C602.289917,312.570007 609.810913,307.591095 619.110657,309.207947 
	C620.416138,309.434937 621.762268,309.684784 622.964417,310.210358 
	C637.987732,316.778656 650.716919,326.916748 664.098022,336.040955 
	C664.023438,336.479797 663.948792,336.918640 663.874207,337.357483 
	C656.858887,337.976105 649.843567,338.594727 642.365479,339.249115 
z"/>
<path fill="#0075f2" opacity="1.000000" stroke="none" 
	d="
M669.557739,298.475800 
	C668.540100,292.159302 667.161743,286.265839 666.855774,280.317230 
	C666.320129,269.900787 672.441162,263.502594 681.821289,263.861572 
	C691.245361,264.222290 698.004822,271.566833 696.855286,281.272919 
	C694.855103,298.160736 685.959412,312.429718 679.124268,327.461212 
	C678.533813,327.465637 677.943359,327.470062 677.352844,327.474457 
	C674.795166,317.940979 672.237427,308.407501 669.557739,298.475800 
z"/>
<path fill="#0075f2" opacity="1.000000" stroke="none" 
	d="
M703.567810,324.573486 
	C698.067322,326.956360 692.901489,329.164307 686.869995,331.742279 
	C687.124023,329.709320 686.930420,328.330231 687.472412,327.363495 
	C694.769836,314.345306 701.866699,301.198242 709.679504,288.492798 
	C713.265808,282.660706 719.405945,280.383240 726.270325,282.445435 
	C732.479431,284.310730 736.481018,288.481079 737.371399,295.177582 
	C738.213135,301.508057 735.527283,306.407379 730.380493,309.524811 
	C721.726440,314.766632 712.745789,319.469177 703.567810,324.573486 
z"/>
<path fill="#0075f2" opacity="1.000000" stroke="none" 
	d="
M680.568359,679.471436 
	C689.563110,692.289917 698.937988,704.624023 706.597107,717.944702 
	C712.600891,728.386414 707.339111,739.009827 696.730469,741.394348 
	C688.287659,743.292053 681.363464,739.571533 679.318604,730.774353 
	C677.872986,724.555115 677.508423,717.923523 677.732605,711.513489 
	C678.107361,700.797302 679.338257,690.111206 680.568359,679.471436 
z"/>
<path fill="#0075f2" opacity="1.000000" stroke="none" 
	d="
M704.714844,669.228027 
	C699.601501,667.717529 694.879395,666.319031 689.618103,664.760803 
	C690.566895,663.759338 690.910645,663.091797 691.434875,662.887634 
	C705.501831,657.408386 719.499817,651.730774 733.717651,646.671936 
	C738.613831,644.929932 743.963806,645.425049 748.461304,648.894409 
	C753.561584,652.828735 755.526794,657.974548 754.184204,664.277344 
	C752.858948,670.498718 748.786255,674.767639 742.721924,675.162231 
	C736.043335,675.596863 729.191772,674.661743 722.526001,673.617981 
	C716.640381,672.696289 710.906738,670.803894 704.714844,669.228027 
z"/>
<path fill="#0075f2" opacity="1.000000" stroke="none" 
	d="
M686.579834,654.151611 
	C692.832764,641.691895 698.822876,629.492432 705.190308,617.493286 
	C706.700256,614.647766 709.246399,612.213379 711.713379,610.041077 
	C718.397400,604.155273 726.538696,604.798462 732.481445,611.404053 
	C737.925598,617.455322 737.950073,627.499329 731.086365,632.133301 
	C720.123535,639.534546 708.316406,645.688293 696.835388,652.316101 
	C694.539917,653.641174 692.180725,654.942017 689.694580,655.802124 
	C688.865784,656.088867 687.548767,654.964478 686.579834,654.151611 
z"/>
<path fill="#0075f2" opacity="1.000000" stroke="none" 
	d="
M373.940308,718.232544 
	C376.651337,724.727295 377.416046,730.775879 372.981567,736.460693 
	C368.851654,741.755188 363.327301,743.124084 356.954437,742.000916 
	C349.901459,740.757812 346.543121,735.534302 346.075439,729.399597 
	C345.220459,718.184326 345.383209,706.875183 345.501801,695.609131 
	C345.556458,690.417969 346.508423,685.236206 347.053497,680.050110 
	C347.644318,679.808838 348.235138,679.567566 348.825989,679.326294 
	C357.143280,692.177612 365.460541,705.028931 373.940308,718.232544 
z"/>
<path fill="#0075f2" opacity="1.000000" stroke="none" 
	d="
M712.044373,329.044800 
	C721.208679,326.523468 729.888977,323.383148 738.842285,321.956238 
	C747.354309,320.599609 753.776611,326.197784 754.927490,334.055389 
	C756.231750,342.959808 750.109192,351.180206 741.116333,351.017090 
	C733.392395,350.877045 725.586548,349.572632 718.020264,347.876251 
	C708.840210,345.818024 699.873535,342.807648 690.814575,340.209259 
	C690.745728,339.595551 690.676941,338.981873 690.608093,338.368164 
	C697.631958,335.303589 704.655823,332.239014 712.044373,329.044800 
z"/>
<path fill="#0075f2" opacity="1.000000" stroke="none" 
	d="
M272.024109,659.734497 
	C268.412231,652.959778 269.017151,646.784729 273.604706,641.259888 
	C277.932770,636.047546 283.777771,635.286560 289.960999,637.098572 
	C292.797272,637.929810 295.626160,639.111267 298.142944,640.649902 
	C307.649933,646.461731 317.054657,652.443054 326.431854,658.463379 
	C328.434082,659.748718 330.160400,661.463928 333.023407,663.807556 
	C315.663544,665.991089 299.683716,668.268494 283.610413,666.429321 
	C279.618835,665.972534 275.997589,662.278931 272.024109,659.734497 
z"/>
<path fill="#0075f2" opacity="1.000000" stroke="none" 
	d="
M643.520447,346.500427 
	C650.873779,345.905457 657.784241,345.415894 666.288330,344.813446 
	C664.493469,347.118927 663.792542,348.295807 662.836365,349.203918 
	C654.870605,356.768768 647.101013,364.568970 638.755188,371.692505 
	C634.669922,375.179504 629.765869,378.139465 624.736145,379.987335 
	C617.039307,382.815002 608.989624,378.544891 606.420715,371.346130 
	C603.624268,363.509583 606.723877,355.128815 614.860962,352.593506 
	C624.001038,349.745758 633.649963,348.531067 643.520447,346.500427 
z"/>
<path fill="#0075f2" opacity="1.000000" stroke="none" 
	d="
M668.464722,715.468994 
	C667.374146,719.906372 666.950989,724.178894 665.262329,727.872986 
	C661.261963,736.623901 651.697388,739.731995 644.028259,735.298340 
	C635.932556,730.618103 633.383789,720.788757 639.015869,712.939514 
	C648.198792,700.141724 658.997986,688.715637 670.187500,677.692322 
	C670.851318,677.887878 671.515137,678.083435 672.178955,678.279053 
	C670.971619,690.533081 669.764282,702.787170 668.464722,715.468994 
z"/>
<path fill="#0075f2" opacity="1.000000" stroke="none" 
	d="
M716.042725,711.005676 
	C706.021301,698.831665 696.262878,686.902527 686.504456,674.973389 
	C686.843018,674.525391 687.181580,674.077454 687.520081,673.629456 
	C688.546570,673.550842 689.662048,673.168457 690.585999,673.439331 
	C703.498108,677.224365 716.516907,680.713806 729.224426,685.101318 
	C736.381104,687.572327 742.133118,692.317139 742.232849,701.024719 
	C742.301086,706.980164 739.996826,711.776245 734.586426,714.634338 
	C729.214600,717.472107 723.984558,716.843750 719.050659,713.415466 
	C718.095459,712.751709 717.218689,711.975037 716.042725,711.005676 
z"/>
<path fill="#0075f2" opacity="1.000000" stroke="none" 
	d="
M671.803711,355.559265 
	C670.268372,369.340607 668.942200,382.730988 667.089355,396.048065 
	C666.249084,402.087982 662.761963,406.881470 657.096924,409.561859 
	C651.291748,412.308655 644.612183,410.642456 639.805603,405.598053 
	C635.537537,401.118835 634.063721,394.273621 638.028320,388.578979 
	C643.783142,380.312805 650.582153,372.741608 657.268677,365.167847 
	C661.391113,360.498413 666.132568,356.375488 671.233521,351.383362 
	C671.522644,353.306915 671.660278,354.222656 671.803711,355.559265 
z"/>
<path fill="#0075f2" opacity="1.000000" stroke="none" 
	d="
M358.126587,646.130615 
	C363.196014,636.151428 367.741119,626.303650 373.137329,616.946716 
	C378.157776,608.241211 385.415985,605.444885 392.688538,608.209534 
	C404.298828,612.623291 407.607178,626.215393 397.641510,633.077942 
	C384.563629,642.083435 370.154175,649.156067 356.297882,657.025574 
	C355.927063,657.236206 355.332092,657.052124 353.775909,657.052124 
	C355.271057,653.285217 356.622375,649.880676 358.126587,646.130615 
z"/>
<path fill="#0075f2" opacity="1.000000" stroke="none" 
	d="
M365.476990,690.522339 
	C361.774078,685.036499 358.288177,679.838074 354.802277,674.639648 
	C355.073914,674.265808 355.345520,673.891968 355.617157,673.518066 
	C359.265900,674.377502 363.010590,674.953308 366.545593,676.148987 
	C377.549164,679.870728 388.814240,683.083557 399.331085,687.904724 
	C409.594360,692.609680 412.032257,703.202209 406.071930,711.124634 
	C400.429047,718.625061 389.725006,719.402832 382.465424,711.840881 
	C376.281952,705.399902 371.240601,697.862305 365.476990,690.522339 
z"/>
<path fill="#0075f2" opacity="1.000000" stroke="none" 
	d="
M649.347046,672.360840 
	C654.501709,671.968140 659.215088,671.649841 664.650513,671.282776 
	C663.911011,672.842224 663.784851,673.551514 663.362610,673.933777 
	C652.786560,683.508118 642.227112,693.102173 631.528625,702.538513 
	C629.834106,704.033081 627.570618,704.997009 625.428101,705.848999 
	C617.237488,709.105957 609.872498,706.193787 606.319519,698.444092 
	C602.798645,690.764343 605.220825,682.576294 613.394714,679.370789 
	C620.396851,676.624817 628.115417,675.631165 635.575012,674.154785 
	C639.960205,673.286865 644.458374,672.989380 649.347046,672.360840 
z"/>
<path fill="#0075f2" opacity="1.000000" stroke="none" 
	d="
M652.588318,607.466309 
	C661.521912,622.345276 665.215088,638.642822 668.537048,655.492981 
	C666.576416,654.354004 664.515808,653.356323 662.672058,652.052124 
	C653.987610,645.909119 645.244812,639.836914 636.782043,633.398682 
	C633.927368,631.226990 631.486328,628.287048 629.465698,625.287598 
	C624.318054,617.646057 625.383606,609.127625 631.717957,604.260559 
	C638.599182,598.973267 645.461304,599.944336 652.588318,607.466309 
z"/>
<path fill="#0075f2" opacity="1.000000" stroke="none" 
	d="
M349.698517,409.241333 
	C344.247986,401.783142 344.915771,393.442413 345.256439,385.368439 
	C345.704102,374.758240 346.877838,364.178680 347.870941,351.968048 
	C349.850800,354.233826 350.960571,355.273193 351.797791,356.498718 
	C358.083679,365.700500 364.509857,374.816284 370.462677,384.230560 
	C372.633698,387.664032 374.075684,391.724152 375.081635,395.693176 
	C377.000214,403.263000 374.499329,408.903839 368.417816,412.276337 
	C361.500641,416.112274 355.719391,415.251007 349.698517,409.241333 
z"/>
<path fill="#0075f2" opacity="1.000000" stroke="none" 
	d="
M300.388336,675.427856 
	C311.291473,674.060120 321.776520,672.811523 333.387421,671.428894 
	C332.353546,673.370117 332.142395,674.188110 331.622620,674.679932 
	C321.966614,683.816956 312.366211,693.016846 302.522736,701.948486 
	C300.121033,704.127747 297.057434,705.807678 294.018188,707.008911 
	C286.420288,710.011902 278.583618,706.625061 275.287842,699.307068 
	C271.777252,691.512085 274.281494,683.388550 282.202576,680.114258 
	C287.798309,677.801208 294.025146,677.014832 300.388336,675.427856 
z"/>
<path fill="#0075f2" opacity="1.000000" stroke="none" 
	d="
M420.727539,657.691406 
	C421.816711,669.759949 415.950653,677.066895 404.483246,676.015930 
	C393.135590,674.976013 381.946198,672.038452 370.744293,669.664856 
	C366.390015,668.742188 362.191406,667.085022 357.506256,665.633728 
	C358.162537,664.826843 358.444641,664.135193 358.930328,663.933289 
	C371.521759,658.698059 384.060822,653.321777 396.791656,648.446960 
	C400.250275,647.122620 404.320740,646.806213 408.070953,646.964111 
	C414.587067,647.238403 418.799927,650.978882 420.727539,657.691406 
z"/>
<path fill="#0075f2" opacity="1.000000" stroke="none" 
	d="
M313.861694,703.861145 
	C321.908325,695.150330 329.734863,686.718811 337.561401,678.287292 
	C338.174530,678.587219 338.787659,678.887085 339.400787,679.187012 
	C338.953064,684.180542 338.619934,689.187622 338.033234,694.164795 
	C336.886139,703.895752 335.644714,713.616516 334.324615,723.325500 
	C334.082367,725.107361 333.457245,726.892395 332.711182,728.541260 
	C328.947021,736.860535 319.636597,740.267517 311.874481,736.253784 
	C304.594299,732.489258 301.592560,722.549377 305.854004,715.107300 
	C308.071350,711.234924 311.022125,707.782532 313.861694,703.861145 
z"/>
<path fill="#0075f2" opacity="1.000000" stroke="none" 
	d="
M339.238831,271.400269 
	C344.918030,265.031281 351.164856,263.474731 357.728058,266.531067 
	C363.834747,269.374817 367.908112,276.853058 365.650757,284.194427 
	C362.445862,294.617645 358.137390,304.716644 353.999176,314.830902 
	C352.141754,319.370605 349.554352,323.611633 346.024139,327.974548 
	C343.811401,319.261108 341.441681,310.583527 339.442230,301.821411 
	C338.152405,296.169220 336.799652,290.412659 336.614838,284.666199 
	C336.476929,280.378815 338.162689,276.032745 339.238831,271.400269 
z"/>
<path fill="#0075f2" opacity="1.000000" stroke="none" 
	d="
M725.771118,359.211761 
	C729.289429,361.161316 732.668518,362.680573 735.576782,364.835358 
	C742.488464,369.956360 744.014465,378.094482 739.613525,384.590210 
	C735.029602,391.356018 725.620117,393.895599 718.940491,388.957153 
	C713.841248,385.187103 709.490234,380.096008 705.698059,374.937073 
	C699.444397,366.429626 693.911133,357.392700 688.074219,348.578949 
	C688.398315,348.009308 688.722412,347.439697 689.046509,346.870056 
	C701.170288,350.936829 713.294006,355.003601 725.771118,359.211761 
z"/>
<path fill="#0075f2" opacity="1.000000" stroke="none" 
	d="
M656.058716,287.027954 
	C661.105469,301.227173 665.995728,315.089264 670.885925,328.951324 
	C670.326416,329.302795 669.766846,329.654266 669.207275,330.005737 
	C664.794128,327.221802 660.312805,324.539154 655.983765,321.630096 
	C649.493958,317.268951 642.877258,313.041840 636.778748,308.175903 
	C633.613464,305.650391 631.008972,302.134552 628.916443,298.611572 
	C624.468384,291.122986 626.805664,282.336243 633.874634,278.148315 
	C640.951172,273.955902 648.836548,275.958466 653.861877,283.257874 
	C654.614990,284.351898 655.225647,285.544098 656.058716,287.027954 
z"/>
<path fill="#0075f2" opacity="1.000000" stroke="none" 
	d="
M684.942871,358.031433 
	C690.344299,366.031799 695.825256,373.568176 700.643372,381.506775 
	C703.359253,385.981628 705.590332,390.953186 706.968506,395.993896 
	C709.594299,405.598297 704.250183,413.182709 694.481995,414.780670 
	C686.281006,416.122223 678.925354,409.927612 678.160095,400.564453 
	C677.674194,394.619934 677.553345,388.606415 677.819885,382.648468 
	C678.255981,372.901031 679.140991,363.173706 681.015686,352.958374 
	C682.258850,354.550842 683.502014,356.143311 684.942871,358.031433 
z"/>
<path fill="#0075f2" opacity="1.000000" stroke="none" 
	d="
M279.599365,337.684875 
	C271.740051,332.707703 269.278076,324.778046 272.979492,317.317993 
	C276.451477,310.320343 284.074097,307.483337 292.147003,310.809692 
	C307.190857,317.008362 319.699310,327.264221 332.708862,337.560913 
	C326.185577,338.234283 319.676361,339.163177 313.135834,339.523895 
	C302.032257,340.136230 290.859589,341.337189 279.599365,337.684875 
z"/>
<path fill="#0075f2" opacity="1.000000" stroke="none" 
	d="
M305.012390,398.879150 
	C303.201294,392.505798 305.738556,387.437500 309.372467,383.320770 
	C318.811890,372.627197 328.721222,362.348419 338.443024,351.904144 
	C338.898987,352.083099 339.354919,352.262054 339.810883,352.440979 
	C339.913666,353.964081 340.270447,355.519806 340.079529,357.005127 
	C338.383636,370.199432 337.085846,383.472961 334.665833,396.536987 
	C332.819427,406.504456 325.381073,411.536438 316.858704,410.082214 
	C310.645416,409.022064 306.804047,405.273071 305.012390,398.879150 
z"/>
<path fill="#0075f2" opacity="1.000000" stroke="none" 
	d="
M389.021179,348.914734 
	C378.381439,346.138184 368.159393,343.416748 357.937347,340.695282 
	C357.979706,340.157410 358.022064,339.619507 358.064423,339.081604 
	C372.720581,332.073303 387.399170,324.941162 403.612732,322.227844 
	C413.434753,320.584137 420.716003,326.532928 421.196594,335.366516 
	C421.695801,344.541870 415.122070,351.277557 405.200226,351.036041 
	C399.932800,350.907837 394.691803,349.693756 389.021179,348.914734 
z"/>
<path fill="#0075f2" opacity="1.000000" stroke="none" 
	d="
M330.981506,301.945801 
	C333.709808,311.357422 336.340790,320.384094 339.380615,330.813324 
	C336.778229,329.562897 335.555908,329.195435 334.593048,328.479156 
	C324.347290,320.856934 314.042603,313.306824 303.999786,305.423950 
	C301.601318,303.541351 299.771423,300.685669 298.273590,297.952301 
	C294.249573,290.608795 296.418030,282.332520 303.099823,278.317352 
	C309.956085,274.197357 318.998810,276.024750 323.110931,283.271484 
	C326.358856,288.995209 328.340302,295.437561 330.981506,301.945801 
z"/>
<path fill="#0075f2" opacity="1.000000" stroke="none" 
	d="
M304.911804,602.742065 
	C312.359192,601.457703 317.846008,604.095764 321.259033,610.170776 
	C329.136810,624.192749 333.329437,639.545288 337.393280,655.865540 
	C335.628052,655.124817 334.572021,654.866272 333.723938,654.297607 
	C324.329407,647.998535 314.859253,641.802612 305.656952,635.232178 
	C302.596222,633.046875 299.954071,630.094238 297.624054,627.100525 
	C290.636108,618.122009 293.892914,607.008728 304.911804,602.742065 
z"/>
<path fill="#0075f2" opacity="1.000000" stroke="none" 
	d="
M386.341553,317.297485 
	C376.016510,322.473755 366.006439,327.463074 355.033691,332.932251 
	C355.215393,330.639984 355.072296,329.926575 355.339722,329.437836 
	C362.667145,316.048126 369.375244,302.254028 377.639648,289.466400 
	C382.831055,281.433746 393.388611,281.549744 399.908691,287.974304 
	C405.881256,293.859436 405.691345,303.162048 399.037872,308.735931 
	C395.238556,311.918762 390.804688,314.344147 386.341553,317.297485 
z"/>
<path fill="#0075f2" opacity="1.000000" stroke="none" 
	d="
M316.337402,363.325623 
	C311.228882,367.859863 306.711975,372.648560 301.394562,376.257996 
	C297.875702,378.646545 293.268738,380.316833 289.041992,380.577881 
	C282.071747,381.008331 277.206573,376.441315 275.511353,369.643250 
	C273.927948,363.293579 276.242249,357.096985 282.325256,354.013672 
	C286.396027,351.950317 290.993195,350.565521 295.510620,349.815674 
	C305.994415,348.075378 316.567932,346.866608 327.116943,345.536530 
	C329.029572,345.295380 330.998657,345.502136 332.941681,345.502136 
	C333.172485,345.957977 333.403259,346.413818 333.634033,346.869690 
	C327.952301,352.272766 322.270538,357.675873 316.337402,363.325623 
z"/>
<path fill="#0075f2" opacity="1.000000" stroke="none" 
	d="
M368.926697,368.094055 
	C364.290894,361.449005 359.856110,355.099335 355.421356,348.749695 
	C355.726898,348.379486 356.032471,348.009308 356.338013,347.639130 
	C359.339752,348.404388 362.418457,348.950592 365.329803,349.973206 
	C377.241302,354.157166 389.361633,357.895142 400.892731,362.963074 
	C409.041840,366.544617 411.226562,375.614746 407.207214,382.846069 
	C402.790405,390.792480 393.230713,393.434326 385.833221,388.054871 
	C381.881042,385.180817 378.754639,381.094025 375.533325,377.317657 
	C373.164581,374.540771 371.246613,371.379425 368.926697,368.094055 
z"/>
<path fill="#0075f2" opacity="1.000000" stroke="none" 
	d="
M614.506226,227.452789 
	C615.022278,226.882812 615.984741,226.059845 616.949890,226.056595 
	C638.223328,225.984863 659.497131,225.998825 680.770752,226.031494 
	C681.377747,226.032425 681.984131,226.416702 682.761719,226.938538 
	C672.189331,227.408325 661.446533,227.645203 650.702820,227.692963 
	C638.786865,227.745926 626.870178,227.626175 614.506226,227.452789 
z"/>
<path fill="#0075f2" opacity="1.000000" stroke="none" 
	d="
M566.186646,227.469147 
	C566.244507,226.982513 566.745789,226.218262 567.240784,226.222305 
	C578.696594,226.316147 590.151794,226.493439 601.771484,226.977661 
	C590.166321,227.383209 578.396729,227.466324 566.186646,227.469147 
z"/>
<path fill="#0075f2" opacity="1.000000" stroke="none" 
	d="
M693.505981,227.442383 
	C693.367798,226.932297 693.680725,226.222580 693.983704,226.226822 
	C703.539490,226.360596 713.094299,226.563797 722.798096,227.094849 
	C713.282104,227.480713 703.617371,227.528152 693.505981,227.442383 
z"/>
<path fill="#0075f2" opacity="1.000000" stroke="none" 
	d="
M878.518188,787.807739 
	C878.145752,786.298523 877.867004,784.332336 877.907776,782.121399 
	C878.355408,783.701355 878.483643,785.526123 878.518188,787.807739 
z"/>
<path fill="#0075f2" opacity="1.000000" stroke="none" 
	d="
M94.034416,95.972824 
	C93.611649,95.876648 93.188873,95.780472 92.766106,95.684296 
	C93.128822,95.636986 93.491531,95.589676 93.931252,95.767700 
	C94.008255,95.993027 94.034416,95.972824 94.034416,95.972824 
z"/>
<path fill="#0075f2" opacity="1.000000" stroke="none" 
	d="
M93.996964,96.004028 
	C94.341141,96.039612 94.696602,96.064201 95.272858,96.247078 
	C95.370697,96.556633 95.247742,96.707893 94.922539,97.070969 
	C94.418869,97.033699 94.117455,96.784630 93.925232,96.254189 
	C94.034416,95.972824 94.008255,95.993027 93.996964,96.004028 
z"/>
<path fill="#0075f2" opacity="1.000000" stroke="none" 
	d="
M931.001221,926.998779 
	C931.272522,927.090210 931.542542,927.182922 931.812622,927.275635 
	C931.578064,927.340027 931.343567,927.404358 931.054382,927.234619 
	C930.999756,927.000488 931.000000,927.000000 931.001221,926.998779 
z"/>
</svg>